<svg xmlns="http://www.w3.org/2000/svg" width="400" height="128.106" viewBox="0 0 400 128.106"><g style="line-height:125%;-inkscape-font-specification:'Mr Dafoe, Normal';text-align:start" font-weight="400" font-size="47.393" font-family="Mr Dafoe" letter-spacing="0" word-spacing="0" fill="#e7bb58"><path d="M335.398 28.777q.995 0 1.294.398 1.393 1.69 1.393 2.786 0 .996-.597 1.792-.597.697-1.493 1.692-.796.895-3.383 2.587-2.488 1.593-4.876 1.593-1.79-.298-1.79-2.19 0-2.984 3.58-5.77 3.583-2.886 5.872-2.886zm-23.882 39.206q-.796 1.393-.796 2.488t1.194 1.095q.697 0 2.39-.597 18.606-9.752 36.418-22.986.896.696.896 1.69 0 .997-.995 1.892-.995.896-2.886 2.587-1.79 1.693-6.965 6.07-5.175 4.38-9.653 7.962-11.743 9.453-17.315 11.145-1.79.497-3.88.497-7.663 0-7.663-8.16 0-3.184 3.483-9.055 3.483-5.97 7.164-10.45 3.68-4.576 4.875-5.074 1.79-1.094 3.88-1.094t3.98.796q.598.298.598.796 0 .497-.995 1.492-.895.995-2.885 3.085-1.89 2.09-5.772 7.265-3.78 5.075-5.074 8.558z"/><path d="M336.53 78.93q0 .198.496.994 1.393 2.19 1.393 6.766 0 4.578-4.777 11.842-4.677 7.363-10.847 12.637-6.27 5.373-10.25 5.373-4.974 0-6.268-8.956 0-12.34 18.01-32.64l54.233-61.395q.598-1.99 2.986-1.99 3.682 0 4.876.896 1.194.895 1.194 2.19 0 1.193-2.09 3.58l-48.56 53.04q.1.098.598.098.597 0 1.194-.298 18.41-9.852 36.22-23.086.896.696.896 1.69 0 .997-.995 1.892l-2.588 2.587q-1.692 1.593-6.568 5.972-4.876 4.28-9.453 7.86-4.477 3.484-10.05 6.767-5.572 3.283-9.65 4.18zm-23.386 28.856q2.587 0 7.762-5.075 5.174-5.074 9.354-11.442 4.18-6.37 4.18-9.752 0-3.284-2.09-3.284-.896 0-2.09.995-4.777 4.578-9.155 11.344-4.38 6.768-6.468 11.246-2.09 4.477-2.09 5.174 0 .796.597.796z"/><path d="M395.324 45.892q4.676.498 4.676 2.09 0 .696-.796 1.592-14.03 15.623-32.24 39.803-5.274 7.165-10.747 13.533-5.473 6.37-10.25 9.254-4.776 2.986-9.95 2.986-2.587 0-4.577-1.394-1.99-1.393-1.99-3.78 0-5.573 5.373-11.544 5.373-5.97 12.04-9.75 6.667-3.683 11.543-4.28l2.09.298q.995-.1 7.264-7.662 6.368-7.562 6.368-7.96.1-.498-.1-.498l-1.89 1.493q-7.463 6.965-11.642 6.965-2.687 0-2.687-3.78 0-5.076 8.258-16.022 8.26-10.946 12.14-10.946.3 0 .697.2 2.786.696 2.786 1.99 0 .497-.298.795-.2.2-1.99 1.89-1.69 1.693-3.383 3.583-1.693 1.792-3.583 3.98-4.28 4.976-4.28 7.464 0 .597.598.597.697 0 2.488-1.096 14.13-9.652 22.09-18.41.697-1.392 1.99-1.392zm-60.7 64.88q3.483-1.095 9.354-6.867 5.87-5.672 10.05-10.747l4.18-5.174q.596-.796.596-.995 0-.2-.298-.2-3.185 0-9.055 4.876-5.97 4.876-10.547 10.647-4.677 5.77-4.677 8.16 0 .298.398.298z"/></g><g fill="#ece9e0"><g style="line-height:125%;-inkscape-font-specification:'Quicksand, Ultra-Light';text-align:start" font-weight="200" font-size="42.79" font-family="Quicksand" letter-spacing="0" word-spacing="0"><path d="M32.568 94.38V33.913q0-1.168 1.168-1.168.45 0 .81.45.358.36.358.718v40.43l41.238-41.24q.54-.448 1.168-.178.63.18.72.718.18.54-.27 1.08L52.063 60.417 77.85 93.57q.448.72.09 1.348-.27.628-.72.628-.45 0-1.078-.45l-25.695-33.06-15.543 15.632v16.71q0 .45-.36.81-.36.358-.808.358-1.168 0-1.168-1.168zM96.882 70.3V33.825q0-1.168 1.078-1.168 1.168 0 1.168 1.168V70.3q0 9.524 6.648 16.172 6.74 6.65 16.262 6.828 9.434-.18 16.082-6.828 6.738-6.648 6.828-16.17V33.823q0-1.168 1.168-1.168.45 0 .81.36.358.36.358.808V70.3q0 10.512-7.457 17.88-7.367 7.366-17.79 7.366-10.42 0-17.788-7.367Q96.88 80.81 96.88 70.3zM192.426 95.546h-.27l-.18-.09q-.27 0-.628-.628l-25.426-60.465q-.36-.63 0-1.078.45-.45 1.078-.36.72 0 1.08.54l24.346 57.95 24.438-57.95q.36-1.078 1.437-.54.99.27.63 1.438l-25.426 60.465-.09.09q-.09.45-.54.54h-.088q-.09.09-.36.09zM280.203 95.277q-.09 0-.63.09-.448 0-.897-.81l-6.02-16.08H241.21l-6.018 16.08q-.18.81-.99.81-.358-.09-.448-.09-.988-.45-.54-1.527l22.642-60.375q.27-.9 1.078-.81.808.09 1.258.81l22.64 60.375q.45.988-.63 1.527zm-23.27-58.488L242.11 76.14h29.648l-14.824-39.35z"/></g><path d="M0 0v128.105h284.55s.974.075.978-1.157c.005-1.022-.978-.943-.978-.943H2.1V2.1h282.45s.988-.007.996-1.075C285.554-.007 284.55 0 284.55 0z" style="line-height:normal;text-indent:0;text-align:start;text-decoration-line:none;text-decoration-style:solid;text-decoration-color:#000;text-transform:none;block-progression:tb;isolation:auto;mix-blend-mode:normal" color="#000" font-weight="400" font-family="sans-serif" white-space="normal" overflow="visible" fill-rule="evenodd"/></g></svg>