<?xml version="1.0" encoding="UTF-8" standalone="no"?>
<!-- Created with Inkscape (http://www.inkscape.org/) -->

<svg
   xmlns:dc="http://purl.org/dc/elements/1.1/"
   xmlns:cc="http://creativecommons.org/ns#"
   xmlns:rdf="http://www.w3.org/1999/02/22-rdf-syntax-ns#"
   xmlns:svg="http://www.w3.org/2000/svg"
   xmlns="http://www.w3.org/2000/svg"
   xmlns:sodipodi="http://sodipodi.sourceforge.net/DTD/sodipodi-0.dtd"
   xmlns:inkscape="http://www.inkscape.org/namespaces/inkscape"
   width="400"
   height="128.106"
   viewBox="0 0 400 128.106"
   id="svg2"
   version="1.1"
   inkscape:version="0.91 r13725"
   sodipodi:docname="kuvaify-logo.svg">
  <defs
     id="defs4" />
  <sodipodi:namedview
     id="base"
     pagecolor="#ffffff"
     bordercolor="#666666"
     borderopacity="1.0"
     inkscape:pageopacity="0.0"
     inkscape:pageshadow="2"
     inkscape:zoom="1.4142136"
     inkscape:cx="126.34956"
     inkscape:cy="62.508575"
     inkscape:document-units="px"
     inkscape:current-layer="g4534"
     showgrid="false"
     inkscape:snap-bbox="true"
     inkscape:bbox-nodes="true"
     inkscape:window-width="1855"
     inkscape:window-height="1056"
     inkscape:window-x="65"
     inkscape:window-y="24"
     inkscape:window-maximized="1"
     units="px">
    <inkscape:grid
       type="xygrid"
       id="grid4142" />
  </sodipodi:namedview>
  <metadata
     id="metadata7">
    <rdf:RDF>
      <cc:Work
         rdf:about="">
        <dc:format>image/svg+xml</dc:format>
        <dc:type
           rdf:resource="http://purl.org/dc/dcmitype/StillImage" />
        <dc:title />
      </cc:Work>
    </rdf:RDF>
  </metadata>
  <g
     inkscape:label="Layer 1"
     inkscape:groupmode="layer"
     id="layer1"
     transform="translate(0,-924.25614)">
    <g
       id="g4534"
       transform="matrix(2.0996131,0,0,2.0996131,-565.82157,-55.959717)">
      <g
         id="text4138-4"
         style="font-style:normal;font-variant:normal;font-weight:normal;font-stretch:normal;font-size:47.39336395px;line-height:125%;font-family:'Mr Dafoe';-inkscape-font-specification:'Mr Dafoe, Normal';text-align:start;letter-spacing:0px;word-spacing:0px;writing-mode:lr-tb;text-anchor:start;fill:#e7bb58;fill-opacity:1;stroke:none;stroke-width:1px;stroke-linecap:butt;stroke-linejoin:miter;stroke-opacity:1">
        <path
           id="path4509"
           style="fill:#e7bb58;fill-opacity:1"
           d="m 429.23134,480.56125 q 0.47393,0 0.61611,0.18957 0.66351,0.80569 0.66351,1.32702 0,0.47393 -0.28436,0.85308 -0.28436,0.33175 -0.7109,0.80569 -0.37915,0.42654 -1.61138,1.23222 -1.18483,0.7583 -2.32227,0.7583 -0.85308,-0.14218 -0.85308,-1.04266 0,-1.4218 1.70616,-2.74881 1.70616,-1.37441 2.79621,-1.37441 z m -11.37441,18.67299 q -0.37915,0.6635 -0.37915,1.18483 0,0.52133 0.56872,0.52133 0.33176,0 1.13744,-0.28436 8.86256,-4.64455 17.34597,-10.94787 0.42654,0.33175 0.42654,0.80569 0,0.47393 -0.47393,0.90047 -0.47393,0.42654 -1.37441,1.23223 -0.85308,0.80569 -3.31753,2.89099 -2.46446,2.08531 -4.59716,3.79147 -5.59242,4.50237 -8.24644,5.30806 -0.85308,0.23697 -1.84834,0.23697 -3.64929,0 -3.64929,-3.88626 0,-1.51659 1.65876,-4.3128 1.65877,-2.8436 3.41233,-4.9763 1.75355,-2.18009 2.32227,-2.41706 0.85308,-0.52133 1.84834,-0.52133 0.99526,0 1.89574,0.37915 0.28436,0.14218 0.28436,0.37915 0,0.23696 -0.47394,0.7109 -0.42654,0.47393 -1.3744,1.46919 -0.90048,0.99526 -2.74882,3.45972 -1.80095,2.41706 -2.41706,4.07583 z"
           inkscape:connector-curvature="0" />
        <path
           id="path4511"
           style="fill:#e7bb58;fill-opacity:1"
           d="m 429.7697,504.44751 q 0,0.0948 0.23696,0.47393 0.66351,1.04265 0.66351,3.22275 0,2.18009 -2.27488,5.63981 -2.22749,3.50711 -5.16588,6.01896 -2.98578,2.55924 -4.88152,2.55924 -2.36966,0 -2.98578,-4.26541 0,-5.87677 8.5782,-15.54502 l 25.82938,-29.2417 q 0.28436,-0.94787 1.42181,-0.94787 1.75355,0 2.32227,0.42654 0.56872,0.42654 0.56872,1.04265 0,0.56872 -0.99526,1.70616 l -23.12796,25.26067 q 0.0474,0.0474 0.28436,0.0474 0.28436,0 0.56872,-0.14218 8.76777,-4.69194 17.25118,-10.99526 0.42654,0.33175 0.42654,0.80569 0,0.47393 -0.47393,0.90047 -0.42654,0.42654 -1.23223,1.23223 -0.80568,0.75829 -3.12796,2.8436 -2.32227,2.03791 -4.50237,3.74408 -2.1327,1.65876 -4.78673,3.22274 -2.65403,1.56399 -4.59715,1.99053 z m -11.13745,13.74407 q 1.23223,0 3.69669,-2.41706 2.46445,-2.41706 4.45497,-5.45024 1.99052,-3.03317 1.99052,-4.64455 0,-1.56398 -0.99526,-1.56398 -0.42654,0 -0.99526,0.47394 -2.27488,2.18009 -4.36019,5.40284 -2.0853,3.22275 -3.08056,5.35545 -0.99527,2.1327 -0.99527,2.46445 0,0.37915 0.28436,0.37915 z"
           inkscape:connector-curvature="0" />
        <path
           id="path4513"
           style="fill:#e7bb58;fill-opacity:1"
           d="M 457.77251,488.71291 Q 460,488.94988 460,489.70817 q 0,0.33175 -0.37915,0.75829 -6.68246,7.44076 -15.35545,18.95735 -2.51185,3.41232 -5.11848,6.4455 -2.60664,3.03317 -4.88152,4.40758 -2.27488,1.4218 -4.73934,1.4218 -1.23222,0 -2.18009,-0.66351 -0.94787,-0.6635 -0.94787,-1.80094 0,-2.65403 2.55924,-5.49763 2.55925,-2.84361 5.7346,-4.64455 3.17536,-1.75356 5.49763,-2.03792 l 0.99526,0.14218 q 0.47394,-0.0474 3.45972,-3.64929 3.03317,-3.60189 3.03317,-3.79147 0.0474,-0.23696 -0.0474,-0.23696 l -0.90047,0.7109 q -3.55451,3.31753 -5.54503,3.31753 -1.27962,0 -1.27962,-1.80095 0,-2.41706 3.93365,-7.63033 3.93365,-5.21327 5.78199,-5.21327 0.14218,0 0.33175,0.0948 1.32702,0.33175 1.32702,0.94787 0,0.23696 -0.14218,0.37914 -0.0948,0.0948 -0.94787,0.90048 -0.80569,0.80568 -1.61137,1.70616 -0.80569,0.85308 -1.70616,1.89573 -2.03792,2.36967 -2.03792,3.55451 0,0.28436 0.28436,0.28436 0.33176,0 1.18484,-0.52133 6.72985,-4.59716 10.52132,-8.76777 0.33176,-0.66351 0.94787,-0.66351 z m -28.90995,30.90047 q 1.65877,-0.52132 4.45497,-3.27014 2.79621,-2.70142 4.78673,-5.11848 l 1.99052,-2.46446 q 0.28437,-0.37914 0.28437,-0.47393 0,-0.0948 -0.14218,-0.0948 -1.51659,0 -4.3128,2.32228 -2.8436,2.32227 -5.0237,5.07109 -2.22749,2.74881 -2.22749,3.88625 0,0.14218 0.18958,0.14218 z"
           inkscape:connector-curvature="0" />
      </g>
      <g
         style="fill:#cdc3ac;fill-opacity:1"
         id="g4494">
        <g
           id="text4138-1"
           style="font-style:normal;font-variant:normal;font-weight:200;font-stretch:normal;font-size:42.79043961px;line-height:125%;font-family:Quicksand;-inkscape-font-specification:'Quicksand, Ultra-Light';text-align:start;letter-spacing:0px;word-spacing:0px;writing-mode:lr-tb;text-anchor:start;fill:#ece9e0;fill-opacity:1;stroke:none;stroke-width:1px;stroke-linecap:butt;stroke-linejoin:miter;stroke-opacity:1">
          <path
             id="path4500"
             style="fill:#ece9e0;fill-opacity:1"
             d="m 285.00001,511.80591 0,-28.79797 q 0,-0.55627 0.55628,-0.55627 0.21395,0 0.38511,0.21395 0.17116,0.17116 0.17116,0.34232 l 0,19.2557 19.64081,-19.64081 q 0.25675,-0.21396 0.55628,-0.0856 0.29953,0.0856 0.34232,0.34232 0.0856,0.25674 -0.12837,0.51349 l -12.23806,12.23806 12.28085,15.78967 q 0.21395,0.34233 0.0428,0.64186 -0.12837,0.29953 -0.34232,0.29953 -0.21395,0 -0.51349,-0.21395 l -12.23806,-15.74688 -7.40275,7.44554 0,7.95902 q 0,0.21395 -0.17116,0.38511 -0.17116,0.17116 -0.38511,0.17116 -0.55628,0 -0.55628,-0.55627 z"
             inkscape:connector-curvature="0" />
          <path
             id="path4502"
             style="fill:#ece9e0;fill-opacity:1"
             d="m 315.63128,500.33807 0,-17.37292 q 0,-0.55628 0.51348,-0.55628 0.55628,0 0.55628,0.55628 l 0,17.37292 q 0,4.53579 3.16649,7.70228 3.20929,3.16649 7.74507,3.25207 4.493,-0.0856 7.65949,-3.25207 3.20928,-3.16649 3.25207,-7.70228 l 0,-17.37292 q 0,-0.55628 0.55628,-0.55628 0.21395,0 0.38511,0.17117 0.17117,0.17116 0.17117,0.38511 l 0,17.37292 q 0,5.00648 -3.55161,8.5153 -3.50882,3.50881 -8.47251,3.50881 -4.96369,0 -8.47251,-3.50881 -3.50881,-3.50882 -3.50881,-8.5153 z"
             inkscape:connector-curvature="0" />
          <path
             id="path4504"
             style="fill:#ece9e0;fill-opacity:1"
             d="m 361.13691,512.36218 -0.12838,0 -0.0856,-0.0428 q -0.12837,0 -0.29953,-0.29953 l -12.10969,-28.79797 q -0.17117,-0.29953 0,-0.51348 0.21395,-0.21395 0.51348,-0.17116 0.34232,0 0.51349,0.25674 l 11.59621,27.59983 11.639,-27.59983 q 0.17116,-0.51349 0.68464,-0.25674 0.4707,0.12837 0.29954,0.68464 l -12.1097,28.79797 -0.0428,0.0428 q -0.0428,0.21395 -0.25674,0.25674 l -0.0428,0 q -0.0428,0.0428 -0.17116,0.0428 z"
             inkscape:connector-curvature="0" />
          <path
             id="path4506"
             style="fill:#ece9e0;fill-opacity:1"
             d="m 402.94317,512.23381 q -0.0428,0 -0.29953,0.0428 -0.21396,0 -0.42791,-0.38511 l -2.86696,-7.65949 -14.97665,0 -2.86696,7.65949 q -0.0856,0.38511 -0.4707,0.38511 -0.17116,-0.0428 -0.21395,-0.0428 -0.47069,-0.21395 -0.25674,-0.72744 l 10.78319,-28.75517 q 0.12837,-0.42791 0.51349,-0.38512 0.38511,0.0428 0.59906,0.38512 l 10.78319,28.75517 q 0.21396,0.4707 -0.29953,0.72744 z m -11.08272,-27.85657 -7.06043,18.74221 14.12085,0 -7.06042,-18.74221 z"
             inkscape:connector-curvature="0" />
        </g>
        <path
           sodipodi:nodetypes="cccsccccscc"
           inkscape:connector-curvature="0"
           id="path4470"
           d="m 269.48828,466.85547 0,61.01367 135.52539,0 c 0,0 0.46356,0.0359 0.46577,-0.55105 0.002,-0.48662 -0.46577,-0.44895 -0.46577,-0.44895 l -134.52539,0 0,-59.01367 134.52539,0 c 0,0 0.4704,-0.003 0.47411,-0.51165 0.004,-0.49173 -0.47411,-0.48835 -0.47411,-0.48835 z"
           style="color:#000000;font-style:normal;font-variant:normal;font-weight:normal;font-stretch:normal;font-size:medium;line-height:normal;font-family:sans-serif;text-indent:0;text-align:start;text-decoration:none;text-decoration-line:none;text-decoration-style:solid;text-decoration-color:#000000;letter-spacing:normal;word-spacing:normal;text-transform:none;direction:ltr;block-progression:tb;writing-mode:lr-tb;baseline-shift:baseline;text-anchor:start;white-space:normal;clip-rule:nonzero;display:inline;overflow:visible;visibility:visible;opacity:1;isolation:auto;mix-blend-mode:normal;color-interpolation:sRGB;color-interpolation-filters:linearRGB;solid-color:#000000;solid-opacity:1;fill:#ece9e0;fill-opacity:1;fill-rule:evenodd;stroke:none;stroke-width:1;stroke-linecap:butt;stroke-linejoin:miter;stroke-miterlimit:4;stroke-dasharray:none;stroke-dashoffset:0;stroke-opacity:1;color-rendering:auto;image-rendering:auto;shape-rendering:auto;text-rendering:auto;enable-background:accumulate" />
      </g>
    </g>
  </g>
</svg>
